<?xml version="1.0" encoding="UTF-8"?><svg id="Layer_1" xmlns="http://www.w3.org/2000/svg" viewBox="0 0 39.07 41.87"><defs><style>.cls-1{fill:white;}.cls-2{fill:#f7961d;}</style></defs><g id="Group_156"><path id="Path_192" class="cls-1" d="m26.35,9.7c0,5.36-4.09,9.7-9.14,9.7s-9.14-4.34-9.14-9.7S12.17,0,17.21,0h0c5.05,0,9.14,4.34,9.14,9.7"/><path id="Path_193" class="cls-1" d="m25.59,41.87H8.84c-4.87-.02-8.82-4.21-8.84-9.38v-.81c.01-5.17,3.96-9.36,8.84-9.38h16.76c4.87.02,8.82,4.21,8.84,9.38v.81c-.01,5.17-3.96,9.36-8.84,9.38"/><path id="Path_194" class="cls-2" d="m39.07,26.56c0,4.66-3.56,8.43-7.94,8.43s-7.94-3.77-7.94-8.43,3.56-8.43,7.94-8.43,7.94,3.77,7.94,8.43"/><path id="Path_195" class="cls-1" d="m35.48,27.55h-8.49c-.33-.02-.59-.32-.58-.67.01-.33.27-.6.58-.62h8.49c.33.02.59.32.58.67-.01.33-.27.6-.58.62"/><path id="Path_196" class="cls-1" d="m30.95,31.41v-9.01c.01-.36.3-.63.63-.62.31.01.57.28.58.62v9.01c-.01.36-.3.63-.63.62-.31-.01-.57-.28-.58-.62"/></g></svg>