<?xml version="1.0" encoding="UTF-8"?><svg id="Layer_2" xmlns="http://www.w3.org/2000/svg" viewBox="0 0 30.88 41.4"><defs><style>.cls-1{fill:#fdce8d;}.cls-2{fill:#ffe5c5;}</style></defs><g id="Layer_1-2"><g><path class="cls-2" d="m30.82,24.89c-.4-5.08-7.99-10.28-7.99-10.28,0,0,1.42,2.39,1.42,4.91,0,2.07-3.16,3.71-4.25,2.29-1.09-1.42-1.64-3.93.55-9.82S13.78,0,13.78,0c0,0,4.2,3.83-4.04,9.6-3.77,2.64-5.09,3.61-7.78,7.54-1.45,2.35-1.97,5.78-1.97,8.75,0,8.57,6.95,15.52,15.52,15.52,7.45,0,13.76-5.22,15.12-12.27h.02s.37-1.63.17-4.24Z"/><path class="cls-1" d="m21.83,38.78c1.92-2.2,2.56-5.39,1.88-8.23-.47-1.98-1.86-4.01-3.89-4.17.44.32.5.99.22,1.46s-.81.72-1.34.81c-1.62.26-3.2-.94-3.92-2.42s-.76-3.19-.8-4.83c-1.3,1.32-2.95,2.26-4.18,3.65-2.26,2.56-3.94,7.58-2.66,10.74,1.06,2.63,3.17,4.78,6.36,5.36s6.41-.17,8.33-2.37Z"/></g></g></svg>