<?xml version="1.0" encoding="UTF-8"?><svg id="Layer_2" xmlns="http://www.w3.org/2000/svg" viewBox="0 0 77 77"><defs><style>.cls-1{fill:#fff;}.cls-2{fill:#194789;}</style></defs><g id="Layer_1-2"><g><circle id="Ellipse_24" class="cls-2" cx="38.5" cy="38.5" r="38.5"/><g id="Layer_1-2-3"><g id="Group_124"><path id="Path_166" class="cls-1" d="m49.82,18.62h-24.03c-4.71,0-8.52,3.82-8.52,8.52v21.69c0,4.71,3.82,8.52,8.52,8.52h24.01c4.71,0,8.52-3.82,8.52-8.52v-21.69c0-4.71-3.82-8.52-8.52-8.52h.01Zm-24.03,1.47h24.01c3.9,0,7.05,3.16,7.05,7.05v21.75c-1.81-2.56-6.04-8.01-9.11-7.89-1.5.06-3.42,1.51-5.36,3.51-3.53-4.44-7.47-8.52-10.17-8.76-4.82-.41-11.32,8.7-13.48,11.93v-20.54c0-3.9,3.16-7.05,7.05-7.05Z"/><circle id="Ellipse_20" class="cls-1" cx="45.55" cy="30.37" r="4.64"/></g></g></g></g></svg>