<?xml version="1.0" encoding="UTF-8"?><svg id="Layer_2" xmlns="http://www.w3.org/2000/svg" viewBox="0 0 27.95 26.36"><defs><style>.cls-1{fill:#fdce8d;}.cls-2{fill:#94b6df;}</style></defs><g id="Layer_1-2"><g><path class="cls-2" d="m22.15,0H5.8C2.6,0,0,2.6,0,5.8v14.76c0,3.2,2.6,5.8,5.8,5.8h16.34c3.2,0,5.8-2.6,5.8-5.8V5.8c0-3.2-2.6-5.8-5.8-5.8ZM5.8,1h16.34c2.65,0,4.8,2.15,4.8,4.8v14.76s0,.03,0,.04c-1.23-1.74-4.11-5.45-6.2-5.37-1.02.04-2.33,1.03-3.65,2.39-2.4-3.02-5.08-5.8-6.92-5.96-3.28-.28-7.7,5.92-9.17,8.12V5.8C1,3.15,3.15,1,5.8,1Z"/><circle class="cls-1" cx="19.24" cy="8" r="3.16"/></g></g></svg>