<?xml version="1.0" encoding="UTF-8"?><svg id="Layer_2" xmlns="http://www.w3.org/2000/svg" viewBox="0 0 67.69 67.69"><defs><style>.cls-1{stroke-width:3px;}.cls-1,.cls-2{fill:none;stroke:#fff;stroke-miterlimit:10;}.cls-3{fill:#f7961d;}.cls-4{fill:#fdce8d;}.cls-5{fill:#fff;}.cls-6{fill:#194789;}.cls-2{stroke-linecap:round;}</style></defs><g id="Layer_1-2"><g id="Group_43"><path id="Path_40" class="cls-6" d="m55.35,67.69H12.34c-6.81-.02-12.32-5.53-12.34-12.34V12.34C.02,5.53,5.53.02,12.34,0h43c6.81.02,12.32,5.53,12.34,12.34v43c-.02,6.81-5.53,12.32-12.34,12.34"/><path id="Path_41" class="cls-3" d="m51.05,28.99c0,9.5-7.7,17.21-17.21,17.21s-17.21-7.7-17.21-17.21,7.7-17.21,17.21-17.21h0c9.5,0,17.21,7.7,17.21,17.21h0"/><path id="Path_42" class="cls-1" d="m51.05,28.99c0,9.5-7.7,17.21-17.21,17.21s-17.21-7.7-17.21-17.21,7.7-17.21,17.21-17.21h0c9.5,0,17.21,7.7,17.21,17.21Z"/><path id="Path_43" class="cls-4" d="m44.51,33.34c0,5.89-4.77,10.67-10.66,10.67s-10.67-4.77-10.67-10.66c0-5.89,4.77-10.67,10.66-10.67h0c5.89,0,10.66,4.77,10.66,10.66h0"/><line id="Line_1" class="cls-2" x1="26.56" y1="39.33" x2="41.13" y2="39.33"/><line id="Line_2" class="cls-2" x1="33.77" y1="40.06" x2="33.92" y2="50.61"/><path id="Path_44" class="cls-2" d="m27.98,32.58l2.22,8.05c.08.34.41.54.75.47.23-.05.4-.23.46-.45l1.82-6.06c.09-.33.43-.53.76-.45.22.06.39.23.45.45l1.82,6.07c.09.33.43.53.76.45.23-.06.4-.24.45-.46l2.24-8.06"/><path id="Path_45" class="cls-5" d="m37.77,49.91h-7.85c-.7.02-1.26.6-1.24,1.31.02.68.56,1.22,1.24,1.24h7.85c.7-.02,1.26-.6,1.24-1.31-.02-.68-.56-1.22-1.24-1.24"/><path id="Path_46" class="cls-5" d="m36.3,53.82h-4.92c-.68,0-1.24.56-1.24,1.24,0,.68.55,1.24,1.24,1.24h4.92c.68,0,1.24-.55,1.24-1.24,0-.68-.55-1.24-1.24-1.24h0"/></g></g></svg>