<?xml version="1.0" encoding="UTF-8"?><svg id="Layer_2" xmlns="http://www.w3.org/2000/svg" viewBox="0 0 77 77"><defs><style>.cls-1{fill:#f7961d;}.cls-2{fill:#fff;}.cls-3{fill:#194789;}.cls-4{fill:#ff9100;stroke:#fff;stroke-miterlimit:10;}</style></defs><g id="Layer_1-2"><g><circle id="Ellipse_25" class="cls-3" cx="38.5" cy="38.5" r="38.5"/><g id="Layer_1-2-4"><g id="Group_117"><path id="Path_155" class="cls-2" d="m52.69,23.7h-5.93l-1.35-2.12c-.01-3.04-2.47-5.5-5.51-5.51h-6.66c-3.04.01-5.5,2.47-5.51,5.51l-1.16,2.12h-3.35c-3.79.01-6.86,3.08-6.88,6.88v18.66c.01,3.79,3.08,6.86,6.88,6.88h29.47c3.79-.01,6.86-3.08,6.88-6.88v-18.66c-.01-3.79-3.08-6.86-6.88-6.88Z"/><circle id="Ellipse_13" class="cls-4" cx="36.42" cy="40.1" r="10.59"/><circle id="Ellipse_14" class="cls-1" cx="52.25" cy="30.55" r="3.04"/><circle id="Ellipse_15" class="cls-2" cx="36.42" cy="40.08" r="5.36"/></g></g></g></g></svg>