<?xml version="1.0" encoding="UTF-8"?><svg id="Layer_2" xmlns="http://www.w3.org/2000/svg" viewBox="0 0 33.29 37.56"><defs><style>.cls-1{fill:#fdce8d;}.cls-2{fill:#94b6df;}</style></defs><g id="Layer_1-2"><g><path class="cls-2" d="m31.51,11.98L20.64,1.6c-2.23-2.13-5.75-2.13-7.99,0L1.79,11.98c-1.14,1.09-1.79,2.6-1.79,4.18v15.62c0,3.19,2.59,5.78,5.78,5.78h21.73c3.19,0,5.78-2.59,5.78-5.78v-15.62c0-1.58-.65-3.09-1.79-4.18Zm-14.75,20.06c-2.24,0-4.26-.88-5.76-2.31.02.05.03.11.05.16-1.18-1.11-2.03-2.56-2.39-4.19-.16-.65-.26-1.32-.26-2.02,0-4.62,3.74-8.36,8.36-8.36s8.36,3.74,8.36,8.36-3.74,8.36-8.36,8.36Z"/><circle class="cls-1" cx="16.65" cy="24.03" r="4.07"/><rect class="cls-1" x="8.98" y="29.32" width="15.34" height="8.21" rx="3.94" ry="3.94"/></g></g></svg>