<?xml version="1.0" encoding="UTF-8"?><svg id="Layer_2" xmlns="http://www.w3.org/2000/svg" viewBox="0 0 26.71 24.82"><defs><style>.cls-1{fill:#94b6df;}.cls-2{fill:none;stroke:#94b6df;stroke-miterlimit:10;}</style></defs><g id="Layer_1-2"><g><path class="cls-2" d="m22.12,5.04h-3.53l-.8-1.26c0-1.8-1.48-3.28-3.28-3.28h-3.96c-1.8,0-3.28,1.48-3.28,3.28l-.69,1.26h-1.99c-2.25,0-4.09,1.84-4.09,4.09v11.1c0,2.25,1.84,4.09,4.09,4.09h17.53c2.25,0,4.09-1.84,4.09-4.09v-11.1c0-2.25-1.84-4.09-4.09-4.09Z"/><path class="cls-1" d="m12.58,20.18c-2.84,0-5.16-2.31-5.16-5.16,0-1.83.96-3.43,2.39-4.35-.05-.14-.1-.28-.16-.43-.02-.05-.04-.11-.06-.16-.02-.05-.11-.25-.02-.05-.02-.04-.04-.08-.06-.12-1.74,1.04-2.9,2.94-2.9,5.11,0,3.29,2.67,5.96,5.96,5.96.85,0,2.12-.03,1.95-.67-.13-.49-1.26-.13-1.95-.13Z"/><path class="cls-1" d="m9.87,8.64l-2.58.8c-.52.16-.64.83-.22,1.17l2.39,1.9c.42.34,1.05.06,1.09-.48l.19-2.69c.03-.47-.42-.83-.87-.69Z"/><path class="cls-1" d="m13.92,9.07c2.84.02,5.14,2.35,5.12,5.19-.01,1.83-.98,3.42-2.43,4.33.05.14.1.29.15.43.02.05.04.11.06.16.02.05.11.25.02.05.02.04.04.08.06.12,1.74-1.03,2.92-2.92,2.94-5.09.02-3.29-2.63-5.98-5.92-6-.85,0-2.12,0-1.95.66.13.49,1.26.14,1.95.15Z"/><path class="cls-1" d="m16.54,20.62l2.59-.78c.52-.16.65-.83.23-1.17l-2.38-1.91c-.42-.34-1.05-.07-1.09.47l-.21,2.69c-.04.47.41.83.86.69Z"/></g></g></svg>